<svg width="1440" height="900" viewBox="0 0 1440 900" fill="none" xmlns="http://www.w3.org/2000/svg">
<g clip-path="url(#clip0)">
<rect width="1440" height="900" fill="white"/>
<path d="M119.111 246.758L112.586 241.906C86.0284 222.156 50.1853 220.359 21.786 237.355C-2.89287 252.124 -18 278.771 -18 307.531V720C-18 819.411 62.5888 900 162 900H1275C1374.41 900 1455 819.411 1455 720V186.181C1455 173.133 1446.5 161.606 1434.04 157.745C1422.77 154.254 1410.5 157.749 1402.76 166.656L1376.41 196.984C1369.34 205.112 1360.88 211.905 1351.41 217.04C1327.39 230.077 1298.73 231.473 1273.55 220.835L1246.18 209.275L1242.93 207.724C1218.73 196.176 1192.25 190.183 1165.43 190.183H1131.39C1104.15 190.183 1077.27 196.366 1052.76 208.266L1048.43 210.372C1012.02 228.052 970.718 232.946 931.188 224.265L927.573 223.471L897.374 213.225C867.959 203.245 836.462 201.047 805.946 206.844L793.15 209.275L729.404 230.026C713.878 235.08 699.374 242.852 686.567 252.98L677.306 260.303C658.961 274.811 636.256 282.704 612.867 282.704C595.491 282.704 578.393 278.346 563.137 270.028L558.425 267.459C550.75 263.274 542.641 259.902 534.263 257.407C512.523 250.932 489.392 250.457 467.409 256.055L447.347 261.165L320.344 279.178C303.848 281.517 287.108 281.555 270.601 279.291L162.402 264.446C146.712 262.294 131.82 256.209 119.111 246.758Z" fill="#5E8CBC"/>
<path d="M791.523 786.824L728.909 809.99C704.308 819.092 677.32 819.429 652.5 810.943C629.926 803.225 605.5 802.786 582.664 809.689L541.605 822.099C537.297 823.401 532.821 824.063 528.321 824.063H526.719C499.143 824.063 478.187 848.855 482.779 876.046C486.368 897.296 504.649 912.933 526.199 913.185L1335.66 922.637C1447.03 923.938 1538 834.021 1538 722.651V587.499C1538 578.161 1532.62 569.659 1524.19 565.657C1514.59 561.106 1503.15 563.347 1495.99 571.182L1470.14 599.443C1455.74 615.183 1435.39 624.148 1414.05 624.148H1392.88C1369.11 624.148 1345.84 630.977 1325.84 643.823L1309.85 654.09C1282.01 671.971 1249.62 681.477 1216.53 681.477C1189.2 681.477 1162.26 687.963 1137.92 700.402L1123.73 707.655C1106.84 716.292 1088.8 722.48 1070.16 726.033L1019.17 735.756C1006.82 738.11 994.281 739.295 981.711 739.295H936.309C906.463 739.295 876.997 745.975 850.069 758.844L791.523 786.824Z" fill="#264A71"/>
<path d="M77.4125 558.54L71.832 551.133C58.0108 532.788 36.3757 522 13.4069 522C-25.9636 522 -58.2722 553.16 -59.6965 592.505L-65.3497 748.67C-69.5041 863.43 23.6146 958.112 138.428 955.867L737.447 944.159C764.321 943.634 777.911 911.559 759.594 891.887C753.712 885.571 745.47 881.983 736.84 881.983H654.689C602.069 881.983 552.308 858.038 519.475 816.919C507.753 802.239 493.719 789.566 477.924 779.397L417.702 740.627C409.478 735.332 402.295 728.573 396.511 720.685L390.743 712.82C373.352 689.104 342.493 679.556 314.747 689.306C295.305 696.138 273.798 693.612 256.468 682.46L236.313 669.491C224.2 661.696 213.648 651.71 205.198 640.044L202.89 636.859C187.143 615.119 163.902 599.981 137.652 594.366L131.5 593.05C109.905 588.431 90.701 576.178 77.4125 558.54Z" fill="#001F3F"/>
</g>
<defs>
<clipPath id="clip0">
<rect width="1440" height="900" fill="white"/>
</clipPath>
</defs>
</svg>
