<svg width="1440" height="900" viewBox="0 0 1440 900" fill="none" xmlns="http://www.w3.org/2000/svg">
<g clip-path="url(#clip0)">
<rect width="1440" height="900" fill="white"/>
<path d="M106.111 146.758L99.5861 141.906C73.0284 122.156 37.1853 120.359 8.78597 137.355C-15.8929 152.124 -31 178.771 -31 207.531V620C-31 719.411 49.5888 800 149 800H1314.3C1390.79 800 1458.92 751.665 1484.19 679.477L1620.09 291.31C1655.75 189.438 1585.72 81.2943 1478.17 72.1709C1446.09 69.4497 1413.92 76.1626 1385.6 91.4841L1352.73 109.275C1319.65 127.219 1280.21 129.141 1245.55 114.499L1233.18 109.275L1229.93 107.724C1205.73 96.1761 1179.25 90.1832 1152.43 90.1832H1118.39C1091.15 90.1832 1064.27 96.366 1039.76 108.266L1035.43 110.372C999.02 128.052 957.718 132.946 918.188 124.265L914.573 123.471L879.674 111.631C853.253 102.666 825.11 99.9666 797.467 103.744L782.252 105.824C765.501 108.113 749.156 112.751 733.698 119.601L710.657 129.812C698.886 135.028 687.82 141.708 677.722 149.695L664.306 160.303C645.961 174.811 623.256 182.704 599.867 182.704C582.491 182.704 565.393 178.346 550.137 170.028L545.425 167.459C537.75 163.274 529.641 159.902 521.263 157.407C499.523 150.932 476.392 150.457 454.409 156.055L434.347 161.165L307.344 179.178C290.848 181.517 274.108 181.555 257.601 179.291L149.402 164.446C133.712 162.294 118.82 156.209 106.111 146.758Z" fill="#DDF0F7"/>
<path d="M778.523 686.824L715.909 709.99C691.308 719.092 664.32 719.429 639.5 710.943C616.926 703.225 592.5 702.786 569.664 709.689L529.641 721.786C524.646 723.296 519.456 724.063 514.238 724.063C484.836 724.063 461 747.898 461 777.301V849.04C461 916.873 515.111 972.322 582.924 973.979L1320.11 991.993C1432.45 994.738 1525 904.423 1525 792.053V487.499C1525 478.161 1519.62 469.659 1511.19 465.657C1501.59 461.106 1490.15 463.347 1482.99 471.182L1457.14 499.443C1442.74 515.183 1422.39 524.148 1401.05 524.148H1379.88C1356.11 524.148 1332.84 530.977 1312.84 543.823L1296.85 554.09C1269.01 571.971 1236.62 581.477 1203.53 581.477C1176.2 581.477 1149.26 587.963 1124.92 600.402L1110.73 607.655C1093.84 616.292 1075.8 622.48 1057.16 626.033L1006.17 635.756C993.823 638.11 981.281 639.295 968.711 639.295H923.309C893.463 639.295 863.997 645.975 837.069 658.844L778.523 686.824Z" fill="#A2D1E6"/>
<path d="M64.4125 458.54L58.6515 450.893C44.9439 432.699 23.4868 422 0.70697 422C-38.6916 422 -70.889 453.444 -71.8221 492.831L-79.6499 823.263C-82.3097 935.543 7.98278 1028 120.294 1028H722.038C732.191 1028 742.273 1026.32 751.876 1023.02L967.703 948.968C993.203 940.219 991.276 903.531 965 897.5L918.67 885.326C904.597 881.628 892.842 871.969 886.485 858.881C877.213 839.792 856.876 828.662 835.8 831.141L824.852 832.429C805.616 834.692 786.367 828.31 772.294 815.003L763.641 806.822C746.772 790.871 724.436 781.983 701.219 781.983H649.536C591.957 781.983 537.506 755.782 501.578 710.786L496.678 704.649C491.424 698.07 485.476 692.078 478.935 686.777L470.86 680.233C461.751 672.85 451.015 667.743 439.541 665.334L436.149 664.621C417.613 660.729 401.634 649.077 392.261 632.617L377.743 612.82C360.352 589.104 329.493 579.556 301.747 589.306C282.305 596.138 260.798 593.612 243.468 582.46L223.313 569.491C211.2 561.696 200.648 551.71 192.198 540.044L189.89 536.859C174.143 515.119 150.902 499.981 124.652 494.366L118.5 493.05C96.9053 488.431 77.701 476.178 64.4125 458.54Z" fill="#769FCA"/>
</g>
<defs>
<clipPath id="clip0">
<rect width="1440" height="900" fill="white"/>
</clipPath>
</defs>
</svg>
